<svg width="53" height="53" viewBox="0 0 53 53" fill="none" xmlns="http://www.w3.org/2000/svg">
<path d="M41.25 15H48.75C49.7446 15 50.6984 14.6049 51.4016 13.9016C52.1049 13.1984 52.5 12.2446 52.5 11.25V3.75C52.5 2.75544 52.1049 1.80161 51.4016 1.09835C50.6984 0.395088 49.7446 0 48.75 0H41.25C40.2554 0 39.3016 0.395088 38.5984 1.09835C37.8951 1.80161 37.5 2.75544 37.5 3.75V5.625H31.875C30.8804 5.625 29.9266 6.02009 29.2234 6.72335C28.5201 7.42661 28.125 8.38044 28.125 9.375V24.375H22.5V18.75C22.5 17.7554 22.1049 16.8016 21.4016 16.0984C20.6984 15.3951 19.7446 15 18.75 15H3.75C2.75544 15 1.80161 15.3951 1.09835 16.0984C0.395088 16.8016 0 17.7554 0 18.75V33.75C0 34.7446 0.395088 35.6984 1.09835 36.4016C1.80161 37.1049 2.75544 37.5 3.75 37.5H18.75C19.7446 37.5 20.6984 37.1049 21.4016 36.4016C22.1049 35.6984 22.5 34.7446 22.5 33.75V28.125H28.125V43.125C28.125 44.1196 28.5201 45.0734 29.2234 45.7766C29.9266 46.4799 30.8804 46.875 31.875 46.875H37.5V48.75C37.5 49.7446 37.8951 50.6984 38.5984 51.4016C39.3016 52.1049 40.2554 52.5 41.25 52.5H48.75C49.7446 52.5 50.6984 52.1049 51.4016 51.4016C52.1049 50.6984 52.5 49.7446 52.5 48.75V41.25C52.5 40.2554 52.1049 39.3016 51.4016 38.5984C50.6984 37.8951 49.7446 37.5 48.75 37.5H41.25C40.2554 37.5 39.3016 37.8951 38.5984 38.5984C37.8951 39.3016 37.5 40.2554 37.5 41.25V43.125H31.875V28.125H37.5V30C37.5 30.9946 37.8951 31.9484 38.5984 32.6516C39.3016 33.3549 40.2554 33.75 41.25 33.75H48.75C49.7446 33.75 50.6984 33.3549 51.4016 32.6516C52.1049 31.9484 52.5 30.9946 52.5 30V22.5C52.5 21.5054 52.1049 20.5516 51.4016 19.8484C50.6984 19.1451 49.7446 18.75 48.75 18.75H41.25C40.2554 18.75 39.3016 19.1451 38.5984 19.8484C37.8951 20.5516 37.5 21.5054 37.5 22.5V24.375H31.875V9.375H37.5V11.25C37.5 12.2446 37.8951 13.1984 38.5984 13.9016C39.3016 14.6049 40.2554 15 41.25 15ZM18.75 33.75H3.75V18.75H18.75V33.75ZM41.25 41.25H48.75V48.75H41.25V41.25ZM41.25 22.5H48.75V30H41.25V22.5ZM41.25 3.75H48.75V11.25H41.25V3.75Z" fill="#2563eb"/>
</svg>
